<svg id="Calque_1" data-name="Calque 1" xmlns="http://www.w3.org/2000/svg" viewBox="0 0 492.39 233.82"><path d="M24.79,79.11V74.94h-18V68.52h9.63V64.35H6.81V58.57H24.47V54.4H2.32V79.11Zm36.91-7.7c0-6.42-6.1-7.06-12.84-7.06-4.81,0-6.42-.32-7.06-1.29a2.4,2.4,0,0,1-.32-1.6c0-2.57,2.57-3.53,6.74-3.53a17.61,17.61,0,0,1,10.59,2.89L60.74,57a24.25,24.25,0,0,0-12.52-3.21c-5.14,0-10.91,1.92-10.91,7.7a6.07,6.07,0,0,0,3.53,5.78c1.28.64,2.24,1,9.63,1,3.85,0,6.09.32,6.74,1.61a4.06,4.06,0,0,1,.32,1.92c0,3.21-3.21,3.85-8,3.85a20.78,20.78,0,0,1-12.19-3.53l-1.93,3.53c4.49,3.21,9.63,4.18,14.76,4.18,5.78.32,11.56-1.29,11.56-8.35M96.05,58.89V54.72H72.93v4.17h9.31V79.44h4.18V58.89ZM116,77.19a3.21,3.21,0,1,0-3.21,3.21A3.46,3.46,0,0,0,116,77.19" transform="translate(-2.32 -2.89)"/><path d="M398.09,79.44V76.23H379.15c.64-4.18,2.25-7.07,6.74-7.71,1.61-.32,3.53-.32,5.14-.64,3.53-.32,7.06-2.25,7.06-6.42,0-5.46-5.78-7.38-10.59-7.38s-7.06.64-11.24,3.21l1.61,2.89a17.37,17.37,0,0,1,9.63-2.57c2.57,0,7.38.64,7.38,3.85,0,1.93-2.25,2.57-3.85,2.89s-3.21.32-5.14.64c-7.06.64-10.27,6.42-10.27,13.16v1.29Zm40.12-12.2c0-8.35-6.74-12.84-14.44-12.84s-14.12,4.81-14.12,12.84c0,8.34,6.74,12.84,14.44,12.84,7.7-.32,14.12-4.82,14.12-12.84m-3.21,0c0,6.42-5.13,9.31-10.91,9.31s-10.91-3.21-10.91-9.63c0-6.1,4.81-9.31,10.59-9.31S435,60.82,435,67.24m40.13,0c0-8.35-6.74-12.84-14.45-12.84s-14.12,4.81-14.12,12.84c0,8.34,6.74,12.84,14.44,12.84,7.71-.32,14.13-4.82,14.13-12.84m-3.21,0c0,6.42-5.14,9.31-10.92,9.31s-10.91-3.21-10.91-9.63c0-6.1,4.82-9.31,10.59-9.31s11.24,3.21,11.24,9.63m22.47-12.52h-3.21V79.11h3.21V54.72Z" transform="translate(-2.32 -2.89)"/><path d="M461,80.08c-8.66,0-14.76-5.46-14.76-13.16s6.1-13.16,14.44-13.16c10.27,0,14.77,6.74,14.77,13.16,0,8-6.1,13.16-14.45,13.16Zm-.32-25.36c-8.34,0-13.8,5.14-13.8,12.52,0,8.66,7.38,12.52,14.12,12.52,9.63,0,14.13-6.1,14.13-12.52-.32-8.67-7.71-12.52-14.45-12.52ZM423.77,80.08c-8.67,0-14.77-5.46-14.77-13.16s6.1-13.16,14.45-13.16c10.27,0,14.76,6.74,14.76,13.16.33,8-5.77,13.16-14.44,13.16Zm0-25.36c-8.35,0-13.8,5.14-13.8,12.52,0,8.66,7.38,12.52,14.12,12.52,9.63,0,14.12-6.1,14.12-12.52-.32-8.67-7.7-12.52-14.44-12.52ZM398.41,79.44H375.62V77.83c0-5.78,2.57-12.52,10.27-13.48,1,0,1.93-.32,2.57-.32a5.49,5.49,0,0,0,2.25-.32c1,0,3.53-.65,3.53-2.57,0-3.53-5.78-3.53-7.06-3.53-3.85,0-6.1,1-9.63,2.57h-.32l-1.93-3.53h.32c4.17-2.25,6.42-3.21,11.24-3.21s10.59,1.92,10.59,7.38c0,4.49-3.85,6.42-7.38,6.74a5.47,5.47,0,0,0-2.25.32c-1,0-1.93.32-2.89.32-3.53.32-5.46,2.57-6.42,7.06h18.94v4.18Zm-22.15-.33h21.83V76.55H379.15v-.32c.64-3.21,1.61-7.39,7.06-8,1,0,1.93-.32,2.89-.32a5.47,5.47,0,0,0,2.25-.32c3.21-.32,6.74-2.25,6.74-6.1,0-5.14-5.46-7.06-10.27-7.06s-6.74.64-10.91,2.89l1.28,2.57c3.21-1.61,5.46-2.57,9.63-2.57,3.53,0,7.38,1,7.38,4.17,0,2.57-3.21,3.21-4.17,3.21-.64,0-1.61.32-2.25.32-1,0-1.92.32-2.57.32-7.38.64-9.95,7.06-9.95,12.84v1Zm118.45.33h-3.85v-25h3.85v25Zm-3.53-.33h2.56V55.36h-2.56V79.11ZM461,76.87c-5.77,0-11.23-2.89-11.23-9.63s5.78-9.63,10.91-9.63c5.78,0,11.56,2.89,11.56,9.63s-5.78,9.63-11.24,9.63Zm-.64-18.94c-5.13,0-10.27,2.89-10.27,9,0,4.17,2.89,9.31,10.91,9.31s10.6-4.82,10.6-9-2.89-9.31-11.24-9.31ZM424.09,76.87c-5.78,0-11.23-2.89-11.23-9.63s5.77-9.63,10.91-9.63c5.78,0,11.56,2.89,11.56,9.63s-5.78,9.63-11.24,9.63Zm-.64-18.94c-5.14,0-10.27,2.89-10.27,9,0,4.17,2.89,9.31,10.91,9.31s10.59-4.82,10.59-9-2.89-9.31-11.23-9.31Z" transform="translate(-2.32 -2.89)"/><path d="M201.65,123.09l-.32,5.13c7.7.33,14.12-5.13,16.69-10.91a25.77,25.77,0,0,0,1.92-14.12c-.64-7.06-3.85-13.48-8.66-17-.32-.33-.64-.33-1-.65,0,.32,0,.32-.33.65-.64,1.28-1.28,2.88-1.92,4.17,3.53,2.89,6.1,7.7,6.74,13.48.32,4.17,0,8-1.61,11.23-1.6,4.18-6.09,8.35-11.55,8" transform="translate(-2.32 -2.89)"/><path d="M337.43,100.3c-1.93-7.38-8-11.88-15.09-10.59l1,5.13a8,8,0,0,1,9.31,6.74,14.33,14.33,0,0,1-1.28,9.63,12,12,0,0,1-7.39,5.46,7,7,0,0,1-2.56.32,28.24,28.24,0,0,1-.65,5.14,21.82,21.82,0,0,0,4.5-.65,16.79,16.79,0,0,0,10.27-7.7,19.78,19.78,0,0,0,1.93-13.48" transform="translate(-2.32 -2.89)"/><path d="M236.64,29c-.32-.32-1-.64-1.29-1.28a33.06,33.06,0,0,0-3.85-3.21c-.32-.32-1-.65-1.28-1-1.93-1.28-3.86-2.56-5.46-3.53a55.77,55.77,0,0,0-33.38-6.74,4.56,4.56,0,0,1,1.28-.64c14.12-6.74,31.46-6.1,46.22,2.25a22.49,22.49,0,0,1,4.5-3.21,6.92,6.92,0,0,0-1.93-1.29A59.23,59.23,0,0,0,205.5,3.36c-14.76,2.25-21.51,9-25.36,12.52l2.57,4.17a49.27,49.27,0,0,1,39.16,4.18c1.61,1,3.21,1.92,5.14,3.21.32.32,1,.64,1.28,1a38.57,38.57,0,0,1,3.85,3.53c.32.32,1,.64,1.29,1.28a56.14,56.14,0,0,1,7.38,9.31c1-1.6,1.92-3.21,2.89-4.81A64.75,64.75,0,0,0,236.64,29" transform="translate(-2.32 -2.89)"/><path d="M281.57,90.35c-.64-1.29-1.28-2.89-1.92-4.17,0-.33,0-.33-.32-.65-.32.32-.64.32-1,.65-4.81,3.53-8,9.95-8.66,17a25.86,25.86,0,0,0,1.92,14.12c2.57,5.78,9,11.24,16.69,10.91l-.32-5.13c-5.45.32-9.95-3.85-11.87-8-1.61-3.21-1.93-7.06-1.61-11.23,1-5.78,3.21-10.59,7.06-13.48" transform="translate(-2.32 -2.89)"/><path d="M248.19,132.08h0c.32-.65.64-1,1-1.61,10.28-17.65,10.6-42.37,6.75-62.59h18.29c1.93,5.14,3.85,10.27,6.1,15.41.32.64.32,1,.64,1.6a1.12,1.12,0,0,0,.32.64c.64,1.29,1.29,2.57,1.93,3.86.32.64.32,1,.64,1.6,5.14,10.59,11.24,21.19,21.51,27.28a29,29,0,0,0,7.38,2.89,28.11,28.11,0,0,0,.64-5.13,24.88,24.88,0,0,1-5.13-2.25C299.55,108.64,293.45,99,289,89.06c-.32-.64-.65-1-.65-1.6h0c-.64-1.28-1.28-2.89-1.92-4.17,0-.32,0-.32-.32-.65-.32-.64-.32-1-.64-1.6-2.25-5.14-4.18-10.59-6.1-15.73C274.83,53.11,270,40.6,263,30a3.45,3.45,0,0,1-1.61-1.28,35.32,35.32,0,0,0-3.21-4.17c-.32-.32-.64-1-1-1.29a61.76,61.76,0,0,0-6.42-6.42c-1.61,1-2.89,1.93-4.49,2.89a47,47,0,0,1,7.06,6.74c.32.32.64,1,1,1.29a45.83,45.83,0,0,1,3.21,4.17c.32.32.64,1,1,1.28,5.78,8.67,10,18.94,13.81,29.21H254.61v-.64a92.83,92.83,0,0,0-5.78-16.05c-1,1.93-1.92,3.85-2.89,6.1a92.87,92.87,0,0,1,3.54,11.23c6.74,27.29,3.53,48.15-3.54,62l-1,1.93c-.32.32-.32.64-.64,1-.64,1-1.28,1.93-1.93,2.89-.32.32-.64.64-.64,1h0a9.72,9.72,0,0,0-1.6,2.24l-1,1-1.28,1.28-1,1a7.07,7.07,0,0,1-1.61,1.29c-.32.32-.64.32-.64.64a9.56,9.56,0,0,1-2.25,1.6,17.85,17.85,0,0,1-2.56,1.61,1.21,1.21,0,0,1-1,.32,7,7,0,0,0-1.6,1,1.19,1.19,0,0,1-1,.32c-.64.32-1,.32-1.6.64-.32,0-.64.33-1.28.33-.65.32-1,.32-1.61.64-.32,0-1,.32-1.28.32-.65,0-1,.32-1.61.32a1.92,1.92,0,0,0-1.28.32c-.64,0-1,.32-1.61.32h-8.66a2.41,2.41,0,0,1-1.61-.32,1.92,1.92,0,0,1-1.28-.32,14.11,14.11,0,0,1-1.61-.32c-.32,0-1-.32-1.28-.32-.64,0-1-.32-1.61-.32-.32,0-1-.32-1.28-.32-.64-.33-1-.33-1.6-.65-.33,0-1-.32-1.29-.32-.64-.32-1-.64-1.6-.64-.32-.32-.65-.32-1-.64a7,7,0,0,1-1.6-1c-.32-.33-.64-.33-1-.65-1-.64-1.61-1.28-2.57-1.92a8.58,8.58,0,0,0-1.93-1.61l-.64-.64c-.32-.32-.64-1-1.28-1.28-.33-.32-.33-.64-.65-1a4.42,4.42,0,0,1-1-1.28c-.32-.32-.32-.64-.64-1a1.67,1.67,0,0,1-.64-1.29c-.32-.32-.32-.64-.65-1s-.32-.64-.64-1.28c-.32-.32-.32-.65-.64-1.29-.32-.32-.32-.64-.64-1.28-.32-.32-.32-1-.64-1.29,0-.32-.32-.64-.32-1.28,0-.32-.33-1-.33-1.28a21.33,21.33,0,0,1-.64-2.25,25,25,0,0,1-.64-5.14v-4.17a27,27,0,0,1,13.8-22.15,21,21,0,0,1,11.56-2.56,31.59,31.59,0,0,1,2.25-4.82V81a23.76,23.76,0,0,0-16.05,2.89,33.49,33.49,0,0,0-16.37,26.32v5.14a28.11,28.11,0,0,0,.64,5.13,14.59,14.59,0,0,0,.32,1.61c0,.32.32.64.32,1s.32,1,.32,1.28c.32.64.32,1.29.64,1.61a2.38,2.38,0,0,0,.65,1.28c.32.64.32,1,.64,1.61.32.32.32,1,.64,1.28.32.64.64,1,1,1.61.32.32.32.64.64,1.28s.65,1,1,1.6c.32.33.64.65.64,1a5.62,5.62,0,0,0,1.28,1.6c.32.32.64.64.64,1,.33.64,1,1,1.29,1.6.32.32.32.64.64.64.64.64,1.61,1.29,2.25,1.93,7.38,6.1,17,9,27,9,8.67,0,17.65-2.25,24.72-7.39,1-.64,1.6-1.28,2.56-1.92l1-1c.32-.32,1-.64,1.28-1s1-.64,1.28-1.28l1-1,1.28-1.28.32-.32c.32-.32.64-1,1-1.28h0c-.33,0,1-1.29,1.92-2.89" transform="translate(-2.32 -2.89)"/><path d="M165.7,116.35c-3.21-1-5.78-2.57-7.38-5.46a14,14,0,0,1-1.29-9.63c1.29-4.81,4.82-7.38,9.31-6.74l1-5.13c-7.06-1.29-13.48,3.21-15.08,10.59a18.65,18.65,0,0,0,1.92,13.16,16.79,16.79,0,0,0,10.27,7.7,19.06,19.06,0,0,0,4.5.64,28.11,28.11,0,0,1-.64-5.13,3.53,3.53,0,0,1-2.57,0" transform="translate(-2.32 -2.89)"/><path d="M319.77,115.06v-3.53c-1-11.23-6.74-20.86-16.37-26.32a24.08,24.08,0,0,0-16-2.89v.32a32.57,32.57,0,0,0,2.25,4.82A18.58,18.58,0,0,1,301.15,90c8,4.49,12.84,12.52,13.81,22.15v4.17a7.13,7.13,0,0,1-.32,2.57c0,1-.33,1.6-.33,2.56,0,.65-.32,1-.32,1.61a31.84,31.84,0,0,1-10.59,16.69c-12.2,9.95-32.42,10.59-45.58,1.6a32.28,32.28,0,0,1-8.34-8,39.39,39.39,0,0,1-3.21,4.49,40.1,40.1,0,0,0,8.66,7.71,43.94,43.94,0,0,0,24.72,7.38c10,0,19.58-2.89,27-9a38.12,38.12,0,0,0,12.52-20.22,13.86,13.86,0,0,1,.32-1.6,28.22,28.22,0,0,0,.64-5.14,4.08,4.08,0,0,1-.32-1.93" transform="translate(-2.32 -2.89)"/><path d="M227.33,30C219.94,40.6,215.45,53.11,211,65.31,209,70.45,207.11,75.9,204.86,81c-.32.64-.32,1-.64,1.6,0,.33,0,.33-.32.65-.65,1.28-1.29,2.89-1.93,4.17-.32.64-.64,1-.64,1.6-4.5,9.63-10.27,19.58-19.26,24.72a27.89,27.89,0,0,1-5.46,2.25,28.11,28.11,0,0,0,.64,5.13,29.21,29.21,0,0,0,7.39-2.89c10-6.09,16.37-16.69,21.5-27.28.32-.64.64-1,.64-1.6h0c.65-1.29,1.29-2.57,1.93-3.86a1.12,1.12,0,0,1,.32-.64c.32-.64.32-1,.64-1.6,2.25-5.14,4.18-10.27,6.1-15.41h18.62c-3.85,20.22-3.53,44.94,6.74,62.59a27.76,27.76,0,0,0,3.21-5.13c-7.06-13.81-10.27-34.67-3.53-61.95a92.51,92.51,0,0,1,3.53-11.24l1-1.92q1.45-2.9,2.89-5.78a7.09,7.09,0,0,1,1-1.61,45.09,45.09,0,0,1,7.39-9.31,38.55,38.55,0,0,0-3.21-4.17A63.24,63.24,0,0,0,246.27,38c-.33.64-.65,1-1,1.6-1,1.61-1.92,3.21-2.89,5.14l-1,1.92a85,85,0,0,0-5.78,16.05v.65H218c3.85-10.28,8-20.55,13.8-29.21A46.23,46.23,0,0,0,227.33,30" transform="translate(-2.32 -2.89)"/><path d="M284.14,3.36a59.25,59.25,0,0,0-35.95,7.06,7,7,0,0,0-1.6,1c-.65.32-1,.64-1.61,1a54.53,54.53,0,0,0-4.49,3.21c-.32.32-1,.64-1.29,1.28a62.76,62.76,0,0,0-6.42,6.42c1.29,1,2.57,2.25,3.86,3.21a46.09,46.09,0,0,1,7.06-6.74c.32-.32,1-.64,1.28-1a14.29,14.29,0,0,1,2.25-1.61c.64-.64,1.6-1,2.25-1.6.32-.32,1-.64,1.28-1h.32c14.77-8,32.1-9,46.54-2.25a4.58,4.58,0,0,1,1.29.64,59,59,0,0,0-33.71,7.06,54,54,0,0,0-5.45,3.53A49.49,49.49,0,0,1,263,27.76a44.62,44.62,0,0,1,4.81-3.53,50.47,50.47,0,0,1,39.16-4.18l2.57-4.17C306.61,13,299.23,5.61,284.14,3.36" transform="translate(-2.32 -2.89)"/><path d="M65.23,235.43,38,177H30.89L3,235.43h7.7L20,215.21H48.22l9.63,20.22ZM45,208.47H23.18L34.1,185.36,45,208.47ZM147.4,194a17.5,17.5,0,0,0-7.06-14.13c-4.49-2.89-7.06-3.21-16.69-3.21H94.44v58.42h6.74V211h23.11l13.48,24.07h8L132.32,211c3.53-.64,6.1-1.29,9-3.53A17.74,17.74,0,0,0,147.4,194m-7.06,0a10.32,10.32,0,0,1-3.85,8.34c-2.25,1.61-4.82,1.93-10,1.93h-25V183.75h26.32c6.74,0,12.52,2.57,12.52,10.28m90.84,41.4L203.9,177h-7.07l-27.92,58.42h7.7l9.31-20.22h28.25l9.63,20.22Zm-20.22-27H189.13L200,185.36,211,208.47Zm103.35,10.59V203.33h-27v6.75h20.22v8.34c0,6.1-7.06,9.31-12.19,10.59a52.79,52.79,0,0,1-7.07.65c-13.8,0-25.67-9.31-25.67-23.76,0-14.12,11.55-23.75,25.35-23.75,8.67,0,14.13,3.21,20.23,9l4.81-4.82c-7.38-7.06-14.44-10.91-25-10.91-17.65,0-32.42,12.2-32.42,30.49,0,18.62,14.45,30.5,32.42,30.5a32.06,32.06,0,0,0,10.92-1.61c7.7-1.6,15.4-7.06,15.4-15.73m91.16-13.16c0-17.65-14.12-30.49-31.45-30.49s-31.78,13.16-31.78,30.81c0,17.34,14.44,30.5,31.46,30.5,17.65,0,31.77-12.84,31.77-30.82m-6.74.32C398.73,220,387.5,230,374,230c-13.16,0-24.72-9.95-24.72-23.44,0-13.8,11.56-23.75,25-23.75,13.48-.32,24.39,9.63,24.39,23.43m94,29.21V176.69h-7.06v48.15l-38.2-48.15h-6.74v58.42h6.74v-47.5l38.2,47.5h7.06Z" transform="translate(-2.32 -2.89)"/></svg>