<?xml version="1.0" encoding="utf-8"?>
<svg xmlns="http://www.w3.org/2000/svg" xmlns:xlink="http://www.w3.org/1999/xlink" version= "1.1" width="1920px" height="1300px" viewBox="-600 63 1920 1300">
<g id="layer1">
<g style="fill:rgb(255,255,255); fill-opacity:1.0; stroke-linejoin: miter">
<path d="M-600.00104,61.66567C-600.3547,61.66567,-600.6938,61.80614,-600.94385,62.05619C-601.1939,62.30624,-601.33435,62.64538,-601.33435,62.999L-601.3334,1363.0C-601.3334,1363.7363,-600.73645,1364.3334,-600.00006,1364.3334L1320.001,1364.3344C1320.3545,1364.3344,1320.6936,1364.1937,1320.9436,1363.9437C1321.1936,1363.6937,1321.3342,1363.3546,1321.3342,1363.001L1321.3333,63.0C1321.3333,62.263622,1320.7363,61.666668,1320.0,61.666668L-600.00104,61.66567 Z"/>
</g>
<g style="fill:rgb(0,0,0); fill-opacity:1.0; stroke-linejoin: miter">
<path d="M381.9715,249.05655C373.43933,252.62604,365.1067,267.50574,365.1067,279.01562C365.1067,286.75482,369.47195,297.26956,374.8284,302.62582L378.99408,306.79022L373.04285,306.79578C367.48828,306.79022,367.0918,307.39023,367.0918,313.73502C367.0918,320.2835,367.48828,320.68265,373.2411,320.68265C379.39316,320.68265,379.39316,320.68265,376.21597,325.04657C366.49445,338.33908,365.10672,341.71045,365.10672,352.22488C365.10672,361.35184,364.7076,362.7409,361.73407,361.5529C359.74908,360.9513,350.22696,357.7822,340.3072,354.40833C330.58417,351.03412,313.52112,346.8671,302.61014,345.28262C269.87302,340.32422,256.7801,343.29626,204.3989,368.2968C184.16267,377.8175,164.32436,386.75168,159.9591,388.13797C146.46974,392.5045,131.58861,389.92465,110.95202,379.60303C86.15232,367.3045,83.96904,366.90796,74.84348,373.2527C68.891075,377.026,66.51225,377.8175,63.533264,376.23166C56.58972,372.46375,48.058903,373.85025,44.48795,379.2078C37.149162,390.51938,37.74254,406.39175,45.876904,415.12082C51.63254,421.27292,58.376564,421.27292,65.91487,414.91977C69.089325,412.1445,72.463356,409.96127,73.45588,409.96127C76.23258,409.96127,87.14623,423.6517,88.53392,428.61276C89.12714,431.18985,89.32685,436.1486,88.92903,439.91898C88.334274,446.07242,87.73818,446.66592,81.19101,447.2604C74.64525,447.8566,73.6514,447.2604,71.67034,441.70468C69.88359,436.54507,68.69282,435.5538,64.13072,436.1486C59.367676,436.74594,58.574814,437.7357,57.97873,443.8851C57.38398,450.03705,58.376564,452.0208,64.32759,457.1776C69.484436,461.74237,71.46946,464.9168,71.46946,469.48175C71.46946,473.4505,70.47826,475.42987,68.49455,475.42987C65.32017,475.42987,65.71659,474.242,57.781784,523.6456C54.60732,543.0874,51.632504,559.5558,50.838177,560.15186C48.258396,562.7315,40.718792,562.1355,37.346146,559.1593C34.171608,556.3812,33.378677,556.57947,29.806389,559.75665C24.451372,564.517,24.847807,569.872,30.600647,575.6276L35.56063,580.5861L-3.1303096,679.19147C-41.420643,776.80646,-59.67308,823.432,-121.17989,982.152L-152.72478,1063.299L-144.5891,1074.0128C-132.48741,1089.4901,-101.734024,1118.2572,-85.463875,1128.97C-67.013145,1141.2714,-40.626408,1154.3655,-20.984951,1160.9142C75.63775,1193.253,197.65329,1176.387,270.86676,1120.6387C289.71402,1106.3536,307.76825,1086.7083,315.5048,1072.028L320.2665,1063.1007L299.03903,1010.92065C241.70068,868.2722,202.41638,771.4525,145.67415,631.57733L124.84184,580.3893L129.8018,576.42053C136.14935,571.4578,136.54582,563.92114,130.59607,559.9522C126.62727,557.17706,125.83296,557.17706,122.65854,560.1519C120.080185,562.53204,118.49159,562.927,116.90439,561.33997C115.71355,560.1492,113.53162,559.55304,111.94311,560.1492C108.77129,561.33997,108.571785,560.34735,102.222786,520.0733C95.081,474.242,95.4775,475.42987,92.30297,475.42987C87.54133,475.42987,88.334274,462.33716,93.095985,460.94812C95.081,460.55438,98.452324,457.57812,100.43609,454.60065C103.61187,449.63928,103.81007,447.8566,101.429924,434.9578C97.06472,410.35916,96.46996,403.81198,99.04972,402.02383C100.43609,401.2322,108.5718,402.61996,116.90442,404.99875C125.43793,407.58127,140.51591,410.5574,150.43575,411.94644C172.65558,414.72433,185.94951,412.93613,225.23242,402.02383C256.184,393.29483,273.4454,390.12045,290.112,390.12045C310.348,390.12033,341.10144,397.66403,359.3539,407.18314C365.10672,410.1608,365.10672,410.1608,363.91736,422.85745L362.52698,435.75327L368.2813,435.75888L374.03537,435.75327L374.03537,454.60052C374.03537,473.45038,374.03537,473.45038,369.07407,473.45038L364.11432,473.456L364.11557,813.1158C364.11423,1000.01184,364.90857,1153.5701,365.70267,1154.1677C366.49564,1154.7622,363.52075,1159.525,358.759,1164.4839L350.22833,1173.8075L323.441,1175.9879C291.1016,1178.5706,251.22406,1185.7124,235.75095,1191.4663C220.07278,1197.6156,214.3213,1202.3787,214.3199,1210.1178C214.3199,1215.8694,213.13048,1217.0574,202.81284,1222.6146C195.07497,1226.7816,190.51149,1230.7477,188.13136,1235.5107C184.16255,1243.2499,183.56787,1259.3208,186.74226,1268.8441C191.9005,1283.7207,229.40201,1296.0248,295.86465,1304.161C331.57666,1308.5221,444.66776,1309.1221,479.98315,1305.1533C536.1282,1298.8058,577.9936,1288.0891,592.0791,1276.5806L599.2209,1270.8279L599.2209,1254.1643C599.2209,1239.4816,598.6261,1236.9028,594.45917,1231.9417C591.6826,1228.7688,586.326,1224.406,582.5569,1222.4182C576.60455,1219.2465,575.4139,1217.4569,575.4139,1211.9064C575.41504,1199.404,560.13885,1191.0742,524.02637,1183.7299C508.35095,1180.5529,456.37024,1174.4034,437.72003,1173.6064C432.95834,1173.4082,417.08737,1156.3453,419.86533,1154.3655C420.85782,1153.5701,421.65213,1024.2118,421.65216,813.1158L421.64966,473.44757L416.68973,473.4532C411.7297,473.44757,411.7297,473.44757,412.12625,455.1939L412.32574,436.74313L417.68356,436.1486L423.23828,435.35434L421.85056,422.85593C420.6571,410.15805,420.6571,410.15805,426.4112,407.18314C444.8674,397.66403,475.41986,390.12033,496.05524,390.12033C511.92462,390.12033,536.5261,394.68222,564.1051,402.8207C607.555,415.71683,630.7674,416.1133,669.0603,405.20224C677.39294,402.62228,685.32776,401.4316,686.7169,402.2274C689.2965,403.61356,688.7018,410.5599,684.338,434.96054C681.9551,447.85928,682.1546,449.64447,685.32776,454.60315C687.31287,457.5794,690.6856,460.55707,692.66785,460.95074C697.43085,462.33984,697.82733,473.05505,693.2639,476.42926C690.8822,478.21338,688.10565,489.52344,683.34393,519.2843C679.7731,541.5028,676.79675,559.95197,676.59863,559.95197C676.59863,560.1531,674.21704,560.749,671.2395,561.3424C667.8695,561.9372,664.4955,561.3424,662.51184,559.5583C659.9335,557.17957,658.94214,557.3778,655.1704,559.9548C649.4148,563.92096,649.6144,571.45776,655.7664,576.2223L660.5267,579.99286L645.05096,619.6735C636.3206,641.4941,619.26025,685.1463,606.95764,716.6913C558.9467,840.2995,517.2811,947.2345,495.25946,1003.7798C468.2765,1072.4243,468.47336,1062.506,494.86157,1090.0835C524.62244,1121.4304,552.9931,1140.8751,590.69006,1155.9518C686.91754,1194.4456,818.853,1179.168,895.8346,1120.6417C914.6831,1106.355,932.73596,1086.7094,940.4737,1072.0309L945.23413,1063.2992L888.2962,922.6345C857.1435,845.2553,813.1005,736.5324,790.681,681.17487L749.8079,580.3892L754.76917,576.4204C760.7204,571.6602,761.51605,564.7153,756.3552,560.15186C751.7905,555.98334,750.0063,555.98334,746.83057,560.15186C744.8466,562.92975,743.8557,563.128,741.8718,561.34247C740.67975,560.15186,738.49915,559.5558,737.1102,560.15186C733.7362,561.34247,733.5379,560.15186,726.9935,517.09973C722.8279,490.11945,720.445,479.5996,717.86536,477.01978C712.1125,471.26697,713.3032,462.93585,720.24677,458.96686C730.1653,453.0158,731.3561,437.14365,722.0323,436.1512C717.8667,435.7532,716.2794,436.74588,714.2958,441.70706C712.1125,447.2631,710.92163,447.85928,704.5728,447.2631C698.2239,446.66837,697.43085,445.8715,696.83484,440.7145C695.84357,431.78738,699.61273,421.4708,706.1614,415.12332L712.1125,409.36636L719.84906,414.52597C729.1755,421.0745,734.1341,421.27274,739.88965,415.1207C751.1984,403.02176,747.62366,377.22116,734.1341,373.6519C732.1503,373.25256,727.9835,374.0468,724.6107,375.63672C719.253,378.2166,718.2618,378.01562,711.1198,373.25256C701.7934,366.90784,699.6116,367.30432,674.81335,379.60562C654.1805,389.926,639.2983,392.50162,625.8074,388.13785C621.8399,386.74887,601.7995,377.81738,581.56323,368.29672C561.3271,358.5753,539.30273,349.24875,532.7542,347.2623C510.33893,340.51703,475.01923,343.6955,441.8885,355.4008C433.95105,358.17615,426.0162,360.9513,424.22803,361.74832C421.05493,362.7409,420.65845,361.35184,420.65845,352.22363C420.65845,341.71045,419.26935,338.3378,409.54785,325.0438C406.3734,320.68265,406.3734,320.68265,412.52533,320.68143C418.27698,320.68143,418.6733,320.28217,418.6733,313.73373C418.6733,307.18927,418.27698,306.79022,412.32574,306.79022C406.7699,306.59448,406.3734,306.3962,409.34958,304.60956C411.13513,303.6171,414.5091,299.05618,416.69095,294.88663C427.40372,274.0543,414.50784,247.07013,394.27026,247.47205C389.70816,247.47205,384.1521,248.2623,381.9715,249.05655 Z M96.46993,557.1742C98.65188,559.7539,102.02329,564.1205,103.81144,567.0914C105.79377,570.0662,109.76116,573.838,112.73877,575.42395C116.70613,577.41034,119.87927,582.3689,124.44539,593.8814C157.37935,674.629,206.97986,797.43884,235.55002,868.2722C254.59674,915.6924,279.59598,977.5901,290.90466,1005.7634C302.2122,1033.7363,311.5374,1057.7429,311.5374,1058.9312C311.5374,1060.1246,310.34656,1060.7163,308.7595,1060.1246C302.80695,1057.7457,255.78754,1048.8154,229.20242,1045.0476C139.52338,1031.7539,25.44254,1031.3575,-73.36213,1044.0552C-98.16438,1047.0271,-131.49486,1053.5784,-140.22528,1056.9513C-143.3997,1058.1394,-144.78876,1057.941,-144.78876,1056.3541C-144.78876,1053.7743,-102.9261,946.04346,-40.030308,786.92865C-20.984926,738.3139,5.2050242,671.84845,18.102446,639.11536C39.92578,583.5624,41.908154,579.39813,48.456646,575.22986C52.225864,572.64996,56.392838,568.6799,57.781784,566.3011C63.337776,555.1878,67.504745,552.8117,80.39952,552.8117C90.51751,552.8117,93.295555,553.6032,96.46993,557.1742 Z M721.4363,557.177C723.61816,559.75665,726.9922,564.1205,728.77765,567.0941C730.7627,570.0688,734.7287,573.8407,737.7049,575.4266C742.2684,577.80945,745.84204,585.3506,761.713,624.43665C772.0307,650.02783,801.1956,721.6528,826.3915,783.94684C903.96747,975.2085,937.29803,1058.5386,936.30676,1059.5284C935.9103,1059.9263,926.1887,1058.3402,914.68164,1055.7633C884.1291,1048.8154,833.13947,1041.4752,793.65717,1037.9019C726.59705,1032.1464,623.0294,1034.7317,552.0005,1043.8572C527.20087,1047.2284,493.2744,1053.5784,485.33826,1056.5522C479.78223,1058.7367,477.60034,1057.5448,479.98187,1052.9855C481.76862,1049.808,514.8995,965.0862,613.50476,713.51807C647.6306,626.02106,666.4805,580.58606,669.0589,578.6065C674.6135,574.4396,682.7492,566.30237,688.10565,558.96094C692.4709,553.2082,693.6616,552.8144,705.1688,552.8144C715.48505,552.8117,718.2631,553.60455,721.4363,557.177 Z"/>
</g>
<g style="fill:rgb(0,0,0); fill-opacity:0.99607843; stroke-linejoin: miter">
<path d="M798.87604,1199.6337L798.87585,1199.634L798.8758,1199.6348L798.87604,1199.6337"/>
</g>
<g style="fill:rgb(0,0,0); fill-opacity:0.99607843; stroke-linejoin: miter">
<path d="M234.5917,211.16417L234.59169,211.16461L234.59166,211.16504L234.59169,211.16461L234.5917,211.16417L234.59169,211.16461L234.59166,211.16504Q234.59169,211.16461,234.5917,211.16417"/>
</g>
<g style="fill:rgb(0,0,0); fill-opacity:0.99607843; stroke-linejoin: miter">
<path d="M234.5917,211.16417L234.59169,211.16461L234.59166,211.16504L234.59169,211.16461L234.5917,211.16417L234.59169,211.16461L234.59166,211.16504Q234.59169,211.16461,234.5917,211.16417"/>
</g>
<g style="fill:rgb(0,0,0); fill-opacity:0.99607843; stroke-linejoin: miter">
<path d="M234.59172,211.16417L234.59169,211.16447L234.59167,211.16476L234.59169,211.16447L234.59172,211.16417L234.59169,211.16447L234.59167,211.16476Q234.59169,211.16447,234.59172,211.16417"/>
</g>
<g style="fill:rgb(0,0,0); fill-opacity:1.0; stroke-linejoin: miter">
<path d="M742.2697,905.44055C707.2406,954.4745,677.9742,995.44055,677.2058,996.4883L675.84375,998.33923L653.7017,976.23206L631.59467,954.1251L621.7461,964.00867L611.89746,973.89233L645.5644,1007.5592C664.07416,1026.0691,679.3362,1041.1913,679.4758,1041.1562C679.825,1041.0166,828.53253,832.7984,828.53253,832.44916C828.4976,832.2397,806.87933,816.6634,806.18085,816.38403C806.0412,816.34906,777.26373,856.40717,742.2697,905.44055 Z"/>
</g>
<g style="fill:rgb(0,0,0); fill-opacity:1.0; stroke-linejoin: miter">
<path d="M-9.329429,1028.5104L-21.719803,1016.1201L14.906649,979.4663L51.53311,942.8401L14.96113,906.4315L-21.610865,870.0231L-9.274962,857.7143L3.0609317,845.3785L35.19418,877.45715C52.867485,895.0759,69.31534,911.46924,71.766174,913.8657L76.17768,918.2228L112.66797,881.7325L149.1583,845.2422L161.60312,857.7143L174.0752,870.1591L137.58484,906.67664L101.094574,943.1669L137.6938,979.657L174.26581,1016.1472L172.27786,1018.244C171.16136,1019.3877,165.6606,1024.943,160.05092,1030.6072L149.83904,1040.9005L126.41994,1017.56335C113.53938,1004.7373,97.03705,988.2893,89.711784,981.0187L76.450005,967.78406L39.878002,1004.3561C19.78111,1024.4528,3.2787776,1040.9005,3.197082,1040.9005C3.1153789,1040.9005,-2.5215337,1035.3181,-9.329429,1028.5104 Z"/>
</g>
<g style="fill:rgb(237,23,75); fill-opacity:0.99607843; stroke-linejoin: miter">
<path d="M-124.529434,73.209076L-124.5294,73.20978L-124.52937,73.21047L-124.5294,73.20978L-124.529434,73.209076L-124.5294,73.20978L-124.52937,73.21047Q-124.5294,73.20978,-124.529434,73.209076"/>
</g>
<g style="fill:rgb(0,0,0); fill-opacity:0.20784314; stroke-linejoin: miter">
<path d="M816.2943,1265.013L812.4425,1272.1968Q785.0578,1293.9067,652.1876,1306.9231Q518.398,1319.9288,337.09473,1317.4707Q164.06436,1314.0348,60.323154,1297.3636Q27.083332,1291.9747,5.564228,1285.62L-12.521981,1279.0868Q-27.426668,1272.3436,-27.594242,1265.013Q-23.06961,1242.5164,95.99039,1227.578Q215.05035,1212.6396,394.35004,1212.0719Q573.6497,1212.6396,692.7097,1227.578Q811.7697,1242.5164,816.2943,1265.013"/>
</g>
</g>
</svg>