<svg id="Layer_1" data-name="Layer 1" xmlns="http://www.w3.org/2000/svg" viewBox="0 0 1827.11 497.22"><defs><style>.cls-1{fill:#1d1d1b;}</style></defs><path class="cls-1" d="M825,430.65a1.43,1.43,0,0,1-1.42-1.42l.77-43.74-.77-43.74a1.44,1.44,0,0,1,1.42-1.42h17.16a1.44,1.44,0,0,1,1.42,1.42l-.77,43.74.77,43.74a1.43,1.43,0,0,1-1.42,1.42Z" transform="translate(-91.85 -193.7)"/><path class="cls-1" d="M854.06,430.65a1.43,1.43,0,0,1-1.42-1.42l.52-30.45-.26-33.16a1.43,1.43,0,0,1,1.42-1.42h15.87a1.26,1.26,0,0,1,1.29,1.42l-.26,7c4.52-5.81,12.13-9.93,21.42-9.93,14.06,0,23.09,9.54,23.09,25.8V402.4l.39,26.83a1.43,1.43,0,0,1-1.42,1.42H897.93a1.43,1.43,0,0,1-1.42-1.42l.39-26.83V388.72c0-7.23-4.39-11.87-10.2-11.87-7,0-14.45,6.45-14.45,20.64v4.91l.26,26.83a1.43,1.43,0,0,1-1.42,1.42Z" transform="translate(-91.85 -193.7)"/><path class="cls-1" d="M962.31,429.62a2.1,2.1,0,0,1-1.93,1.29H940a2.11,2.11,0,0,1-1.94-1.29L916,365.49a.91.91,0,0,1,.9-1.29H935a2.06,2.06,0,0,1,1.8,1.42l14.07,49.29,15.74-49.42a2,2,0,0,1,1.81-1.29h15.35a.91.91,0,0,1,.9,1.29Z" transform="translate(-91.85 -193.7)"/><path class="cls-1" d="M1047,408.2a1.26,1.26,0,0,1,1.29,1.42c-1.81,12.13-13.42,22.71-31.87,22.71-22.19,0-34.19-14.58-34.19-34.71,0-21.16,12.64-35.09,33.8-35.09,21.81,0,33.81,14.32,34.32,37.41a1.42,1.42,0,0,1-1.41,1.42h-47.23c.78,12.52,5.68,18.07,15,18.07,6.45,0,11.09-2.84,12.9-9.81a1.66,1.66,0,0,1,1.68-1.42Zm-30.84-32.9c-7.74,0-12.38,4.65-13.93,13.81h27.22C1028.63,382,1024.63,375.3,1016.11,375.3Z" transform="translate(-91.85 -193.7)"/><path class="cls-1" d="M1085.78,432.2c-18.83,0-31.87-7.74-32.64-22.45a1.44,1.44,0,0,1,1.42-1.42h16a1.44,1.44,0,0,1,1.42,1.42c.64,7.23,5.42,10.45,14.45,10.45,7.61,0,11.74-3,11.74-8.13,0-12.64-43.48-.38-43.48-28.25,0-13.81,11.09-21.16,29-21.16,17.29,0,29,6.83,30.32,20.64a1.26,1.26,0,0,1-1.29,1.42h-15.1a1.79,1.79,0,0,1-1.8-1.42c-1-5.55-4.65-8.9-12.39-8.9-6.32,0-10.32,2.32-10.32,8,0,12.64,43.48-.26,43.48,28C1116.62,424.33,1103.46,432.2,1085.78,432.2Z" transform="translate(-91.85 -193.7)"/><path class="cls-1" d="M1161.13,427.94a2.34,2.34,0,0,1-1.29,1.94,41,41,0,0,1-11.87,2.06c-11.22,0-21.93-5.67-21.93-20.77l.13-33.29h-7.23a1.43,1.43,0,0,1-1.42-1.42V365.62a1.44,1.44,0,0,1,1.42-1.42h7.1l-.13-15.22a1.43,1.43,0,0,1,1.42-1.42h16.77a1.43,1.43,0,0,1,1.42,1.42l-.13,15.22h14.45a1.43,1.43,0,0,1,1.42,1.42v10.84a1.43,1.43,0,0,1-1.42,1.42h-14.58l.13,32.77c0,5.68,2.84,7.49,7.1,7.49a27.06,27.06,0,0,0,7.22-1,1.14,1.14,0,0,1,1.42,1Z" transform="translate(-91.85 -193.7)"/><path class="cls-1" d="M1186.29,406.78l.52,22.45a1.43,1.43,0,0,1-1.42,1.42H1168.1a1.43,1.43,0,0,1-1.42-1.42l.52-22.45-.26-41.16a1.43,1.43,0,0,1,1.42-1.42h16a1.26,1.26,0,0,1,1.29,1.42l-.26,7c4.64-6.45,10.58-9.93,19.09-9.93,9.29,0,15.87,4,19,12.51,5.68-10.06,12.39-12.51,20.26-12.51,13.42,0,21.16,8.12,21.16,25.8v18.32l.39,22.45a1.43,1.43,0,0,1-1.42,1.42h-17a1.43,1.43,0,0,1-1.42-1.42l.51-22.45V388.72c0-8-3.35-11.87-8.64-11.87s-11.74,7.1-11.74,20.64v9.29l.51,22.45a1.43,1.43,0,0,1-1.42,1.42h-17a1.43,1.43,0,0,1-1.42-1.42l.52-22.45V388.72c0-8-3.23-11.87-8.65-11.87s-11.74,7.1-11.74,20.64Z" transform="translate(-91.85 -193.7)"/><path class="cls-1" d="M1335.57,408.2a1.25,1.25,0,0,1,1.29,1.42c-1.8,12.13-13.42,22.71-31.87,22.71-22.19,0-34.19-14.58-34.19-34.71,0-21.16,12.64-35.09,33.81-35.09,21.8,0,33.8,14.32,34.32,37.41a1.43,1.43,0,0,1-1.42,1.42h-47.23c.78,12.52,5.68,18.07,15,18.07,6.45,0,11.1-2.84,12.9-9.81a1.67,1.67,0,0,1,1.68-1.42Zm-30.84-32.9c-7.74,0-12.38,4.65-13.93,13.81H1318C1317.25,382,1313.25,375.3,1304.73,375.3Z" transform="translate(-91.85 -193.7)"/><path class="cls-1" d="M1346.15,430.65a1.43,1.43,0,0,1-1.42-1.42l.52-30.45-.26-33.16a1.43,1.43,0,0,1,1.42-1.42h15.87a1.26,1.26,0,0,1,1.29,1.42l-.26,7c4.51-5.81,12.13-9.93,21.42-9.93,14.06,0,23.09,9.54,23.09,25.8V402.4l.39,26.83a1.43,1.43,0,0,1-1.42,1.42H1390a1.43,1.43,0,0,1-1.42-1.42l.39-26.83V388.72c0-7.23-4.39-11.87-10.2-11.87-7,0-14.45,6.45-14.45,20.64v4.91l.26,26.83a1.43,1.43,0,0,1-1.42,1.42Z" transform="translate(-91.85 -193.7)"/><path class="cls-1" d="M1454.53,427.94a2.36,2.36,0,0,1-1.29,1.94,41,41,0,0,1-11.87,2.06c-11.23,0-21.94-5.67-21.94-20.77l.13-33.29h-7.22a1.43,1.43,0,0,1-1.42-1.42V365.62a1.43,1.43,0,0,1,1.42-1.42h7.09L1419.3,349a1.43,1.43,0,0,1,1.42-1.42h16.78a1.43,1.43,0,0,1,1.42,1.42l-.13,15.22h14.45a1.44,1.44,0,0,1,1.42,1.42v10.84a1.43,1.43,0,0,1-1.42,1.42h-14.58l.13,32.77c0,5.68,2.83,7.49,7.09,7.49a27.21,27.21,0,0,0,7.23-1,1.15,1.15,0,0,1,1.42,1Z" transform="translate(-91.85 -193.7)"/><path class="cls-1" d="M1523.94,432.72c-23.61,0-39.87-9.94-40.9-31.1a1.43,1.43,0,0,1,1.42-1.42h17.68a1.65,1.65,0,0,1,1.54,1.42c1.29,9.94,5.94,16.39,20.65,16.39,11.74,0,18.19-3.49,18.19-12,0-20.39-57.67-4.26-57.67-40.13,0-16.9,13.16-27.48,36.25-27.48,21,0,35.61,8.13,38.45,27.22a1.32,1.32,0,0,1-1.29,1.42h-17.67a1.57,1.57,0,0,1-1.68-1.42c-1.16-8-7.74-12.38-18.58-12.38-9.29,0-16,3.22-16,10.71,0,19.22,57.93,3.61,57.93,39.35C1562.26,422.4,1547.55,432.72,1523.94,432.72Z" transform="translate(-91.85 -193.7)"/><path class="cls-1" d="M1600.32,432.33c-21.68,0-34.19-13.55-34.19-34.71s12.51-35.09,34.19-35.09,33.93,13.54,33.93,34.7S1622,432.33,1600.32,432.33Zm0-12.9c9.55,0,14.06-6.58,14.06-21.81,0-15-4.64-22.19-14.19-22.19-9.8.13-14.32,7.35-14.32,22.32S1590.64,419.43,1600.32,419.43Z" transform="translate(-91.85 -193.7)"/><path class="cls-1" d="M1672.7,432.33c-21.29,0-33.93-13.55-33.93-34.71s12.64-35.09,34.32-35.09c17,0,28,9.54,29.67,23.87a1.25,1.25,0,0,1-1.29,1.42h-15.09a1.66,1.66,0,0,1-1.68-1.42c-1.42-7.23-6.19-10.84-11.61-10.84-9.81.13-14.45,7.22-14.45,21.93,0,15.23,4.77,21.81,14.45,21.94,6.45.13,11.35-4.39,12.26-12.91a1.63,1.63,0,0,1,1.54-1.41h15.49a1.25,1.25,0,0,1,1.29,1.41C1702.12,421.49,1690,432.33,1672.7,432.33Z" transform="translate(-91.85 -193.7)"/><path class="cls-1" d="M1711.15,430.65a1.43,1.43,0,0,1-1.42-1.42l.51-31.74-.51-31.87a1.43,1.43,0,0,1,1.42-1.42h17a1.44,1.44,0,0,1,1.42,1.42l-.52,31.87.52,31.74a1.43,1.43,0,0,1-1.42,1.42Zm.13-72.9a1.43,1.43,0,0,1-1.42-1.42V341.75a1.43,1.43,0,0,1,1.42-1.42h16.77a1.44,1.44,0,0,1,1.42,1.42v14.58a1.43,1.43,0,0,1-1.42,1.42Z" transform="translate(-91.85 -193.7)"/><path class="cls-1" d="M1801,408.2a1.26,1.26,0,0,1,1.29,1.42c-1.81,12.13-13.42,22.71-31.87,22.71-22.19,0-34.19-14.58-34.19-34.71,0-21.16,12.64-35.09,33.8-35.09,21.81,0,33.81,14.32,34.32,37.41a1.43,1.43,0,0,1-1.42,1.42h-47.22c.77,12.52,5.68,18.07,15,18.07,6.45,0,11.09-2.84,12.9-9.81a1.66,1.66,0,0,1,1.68-1.42Zm-30.84-32.9c-7.74,0-12.39,4.65-13.94,13.81h27.23C1782.63,382,1778.63,375.3,1770.11,375.3Z" transform="translate(-91.85 -193.7)"/><path class="cls-1" d="M1848.56,427.94a2.36,2.36,0,0,1-1.29,1.94,41,41,0,0,1-11.87,2.06c-11.23,0-21.94-5.67-21.94-20.77l.13-33.29h-7.23a1.43,1.43,0,0,1-1.42-1.42V365.62a1.44,1.44,0,0,1,1.42-1.42h7.1l-.13-15.22a1.43,1.43,0,0,1,1.42-1.42h16.77a1.43,1.43,0,0,1,1.42,1.42l-.13,15.22h14.46a1.44,1.44,0,0,1,1.42,1.42v10.84a1.43,1.43,0,0,1-1.42,1.42h-14.58l.12,32.77c0,5.68,2.84,7.49,7.1,7.49a27.21,27.21,0,0,0,7.23-1,1.15,1.15,0,0,1,1.42,1Z" transform="translate(-91.85 -193.7)"/><path class="cls-1" d="M1889.58,451.3a2.25,2.25,0,0,1-1.93,1.29H1872a1,1,0,0,1-.91-1.29l6.84-20-26.58-65.81a1,1,0,0,1,.91-1.29h19a2.12,2.12,0,0,1,1.94,1.29l14.32,41.29,11.87-41.16a2.08,2.08,0,0,1,1.81-1.42H1918a.9.9,0,0,1,.9,1.29Z" transform="translate(-91.85 -193.7)"/><path class="cls-1" d="M1159.51,520.84a.69.69,0,0,1-.7-.69l.31-26.83-.31-25.9a.7.7,0,0,1,.7-.7h6a.7.7,0,0,1,.7.7l-.31,25.9.31,26.83a.69.69,0,0,1-.7.69Z" transform="translate(-91.85 -193.7)"/><path class="cls-1" d="M1180.07,505.3l.23,14.85a.69.69,0,0,1-.69.69h-6a.69.69,0,0,1-.69-.69l.23-14.85-.15-23.58a.68.68,0,0,1,.69-.69h5.57a.69.69,0,0,1,.69.69l-.23,6c2.48-4.17,6.34-7.65,12.3-7.65,5.72,0,9.74,2.63,11.52,8.35,2.78-5.41,6.88-8.35,12.52-8.35,7.81,0,12.45,4.95,12.45,15.77v9.43l.15,14.85a.69.69,0,0,1-.69.69h-5.88a.69.69,0,0,1-.69-.69l.23-14.85v-9.12c0-7.42-3-10.44-7.66-10.44-4.25,0-7.81,3.79-9.51,10.36v9.2l.16,14.85a.69.69,0,0,1-.7.69h-5.8a.69.69,0,0,1-.69-.69l.15-14.85v-9.12c0-7.42-2.94-10.44-7.65-10.44s-8.35,4.41-9.9,12.06Z" transform="translate(-91.85 -193.7)"/><path class="cls-1" d="M1253.91,521.62c-5.57,0-9.82-2.32-12.45-6.73l.15,18.4a.69.69,0,0,1-.69.7H1235a.69.69,0,0,1-.69-.7l.23-29.77-.23-21.8a.69.69,0,0,1,.69-.69h5.72a.69.69,0,0,1,.7.69l-.15,5.72a14.05,14.05,0,0,1,12.68-7.19c10.74,0,16.46,9,16.46,20.57S1264.42,521.62,1253.91,521.62Zm-1.86-5.18c7.73,0,11.29-6.19,11.29-15.08,0-9.51-3.56-15.93-11.13-15.93-6.81,0-11.06,5.18-11.14,15.16S1245,516.44,1252.05,516.44Z" transform="translate(-91.85 -193.7)"/><path class="cls-1" d="M1309.81,507a.64.64,0,0,1,.62.7c-1.24,8.12-7.27,14.07-17.48,14.07-12.37,0-19-8.58-19-20.72,0-12.45,7.12-20.95,18.64-20.95s18.32,7.88,18.55,21.11a.69.69,0,0,1-.69.69h-29.38c.23,9.59,4.17,14.69,12,14.69,5.88,0,9.43-3.09,10.59-8.89a.91.91,0,0,1,.85-.7Zm-17.17-21.8c-6.57,0-10.36,4.25-11.36,11.75h22.26C1303.31,490.61,1299.68,485.2,1292.64,485.2Z" transform="translate(-91.85 -193.7)"/><path class="cls-1" d="M1316.46,520.84a.69.69,0,0,1-.7-.69l.23-19.64-.23-18.79a.69.69,0,0,1,.7-.69h5.72a.69.69,0,0,1,.69.69l-.31,6.73a15.17,15.17,0,0,1,13.53-7.81,11,11,0,0,1,2.32.23.9.9,0,0,1,.7.85v4.33a.58.58,0,0,1-.7.54,17.57,17.57,0,0,0-2.24-.15c-6.73,0-12.52,4.1-13.37,12.83l.07,20.88a.69.69,0,0,1-.69.69Z" transform="translate(-91.85 -193.7)"/><path class="cls-1" d="M1343.83,476.46a.69.69,0,0,1-.7-.69v-6.34a.7.7,0,0,1,.7-.7h5.79a.7.7,0,0,1,.7.7v6.34a.69.69,0,0,1-.7.69Zm0,44.38a.69.69,0,0,1-.7-.69l.15-19.8-.15-18.63a.69.69,0,0,1,.7-.69h5.79a.69.69,0,0,1,.7.69l-.15,18.56.15,19.87a.69.69,0,0,1-.7.69Z" transform="translate(-91.85 -193.7)"/><path class="cls-1" d="M1385.19,520.84a.69.69,0,0,1-.7-.69l.16-5.72a14.2,14.2,0,0,1-12.76,7.19c-10.74,0-16.47-9-16.47-20.57s6.11-20.8,16.63-20.8c5.64,0,9.89,2.4,12.52,6.81l-.15-5.34a.69.69,0,0,1,.69-.69h5.72a.69.69,0,0,1,.7.69l-.23,18.87.23,19.56a.69.69,0,0,1-.7.69Zm-11.52-4.4c6.88,0,11.06-5.11,11.13-15.16.08-9.59-3.55-15.31-10-15.85h-1.62c-7.19.31-10.52,6.42-10.52,15.08C1362.61,510,1366.17,516.44,1373.67,516.44Z" transform="translate(-91.85 -193.7)"/><path class="cls-1" d="M1398.72,520.84a.69.69,0,0,1-.7-.69l.31-26.68-.31-26.05a.7.7,0,0,1,.7-.7h5.72a.7.7,0,0,1,.7.7l-.31,26,.31,26.75a.69.69,0,0,1-.7.69Z" transform="translate(-91.85 -193.7)"/><path class="cls-1" d="M1448.51,521.85c-15.85,0-25.2-10.67-25.2-28.14,0-17.09,9.66-28,25.2-28,10.83,0,20,4.95,22.58,18.94a.54.54,0,0,1-.54.69h-5.72a.91.91,0,0,1-.86-.69c-1.7-9-7.65-13-15.54-13-11.36,0-17.7,8.66-17.7,22,0,14.61,6.65,22.19,17.63,22.19,9,0,14.84-4.95,15.92-14.15a.83.83,0,0,1,.78-.7h5.87a.63.63,0,0,1,.62.7C1469.46,515.51,1460.88,521.85,1448.51,521.85Z" transform="translate(-91.85 -193.7)"/><path class="cls-1" d="M1494.13,521.77c-12.06,0-18.87-8.19-18.87-20.72s6.81-20.95,18.87-20.95,18.86,8.27,18.86,20.8S1506.27,521.77,1494.13,521.77Zm0-5.18c7.81,0,11.59-5.57,11.59-15.54s-3.86-15.77-11.59-15.77c-7.89.07-11.68,5.8-11.68,15.77S1486.32,516.59,1494.13,516.59Z" transform="translate(-91.85 -193.7)"/><path class="cls-1" d="M1518.79,520.84a.69.69,0,0,1-.7-.69l.31-26.68-.31-26.05a.7.7,0,0,1,.7-.7h5.72a.7.7,0,0,1,.7.7l-.31,26,.31,26.75a.69.69,0,0,1-.7.69Z" transform="translate(-91.85 -193.7)"/><path class="cls-1" d="M1532.71,520.84a.69.69,0,0,1-.7-.69l.31-26.68-.31-26.05a.7.7,0,0,1,.7-.7h5.72a.69.69,0,0,1,.69.7l-.31,26,.31,26.75a.69.69,0,0,1-.69.69Z" transform="translate(-91.85 -193.7)"/><path class="cls-1" d="M1580.1,507a.63.63,0,0,1,.62.7c-1.24,8.12-7.27,14.07-17.47,14.07-12.37,0-19-8.58-19-20.72,0-12.45,7.11-20.95,18.63-20.95s18.32,7.88,18.56,21.11a.69.69,0,0,1-.7.69h-29.38c.23,9.59,4.18,14.69,12,14.69,5.88,0,9.44-3.09,10.6-8.89a.9.9,0,0,1,.85-.7Zm-17.16-21.8c-6.57,0-10.36,4.25-11.37,11.75h22.27C1573.61,490.61,1570,485.2,1562.94,485.2Z" transform="translate(-91.85 -193.7)"/><path class="cls-1" d="M1603,536c-9.13.15-16.39-3.71-17.09-12.3a.59.59,0,0,1,.62-.69h5.56a.83.83,0,0,1,.78.69c.77,4.95,4.71,7.19,10.28,7.19,6.65,0,11-3.86,11-12.83v-4.41a13.6,13.6,0,0,1-12.37,7c-11.13,0-17-8.43-17-19.79s6-20.41,16.78-20.41c5.56,0,9.82,2.39,12.45,6.8l-.24-5.49a.69.69,0,0,1,.7-.69h5.64a.69.69,0,0,1,.7.69l-.16,15.23.08,21.19C1620.77,529.58,1614.35,536,1603,536Zm.31-20.41c6.49,0,10.74-4.64,10.82-14.46.08-9.44-3.56-15.16-10-15.7h-1.62c-7,.31-10.6,6.19-10.6,15.16C1591.85,510.17,1595.72,515.66,1603.3,515.59Z" transform="translate(-91.85 -193.7)"/><path class="cls-1" d="M1661.36,507a.63.63,0,0,1,.62.7c-1.24,8.12-7.27,14.07-17.48,14.07-12.37,0-19-8.58-19-20.72,0-12.45,7.11-20.95,18.63-20.95s18.32,7.88,18.55,21.11a.69.69,0,0,1-.69.69H1632.6c.23,9.59,4.17,14.69,12,14.69,5.88,0,9.43-3.09,10.59-8.89a.91.91,0,0,1,.85-.7Zm-17.16-21.8c-6.58,0-10.36,4.25-11.37,11.75h22.27C1654.87,490.61,1651.23,485.2,1644.2,485.2Z" transform="translate(-91.85 -193.7)"/><path class="cls-1" d="M1681.46,520.84a.69.69,0,0,1-.69-.69l.31-27.6-.31-25.13a.69.69,0,0,1,.69-.7h6a.69.69,0,0,1,.69.7l-.23,24.74.23,22.88H1712a.7.7,0,0,1,.7.7v4.41a.69.69,0,0,1-.7.69Z" transform="translate(-91.85 -193.7)"/><path class="cls-1" d="M1731.56,521.77c-12.06,0-18.86-8.19-18.86-20.72s6.8-20.95,18.86-20.95,18.87,8.27,18.87,20.8S1743.7,521.77,1731.56,521.77Zm0-5.18c7.81,0,11.6-5.57,11.6-15.54s-3.87-15.77-11.6-15.77-11.67,5.8-11.67,15.77S1723.75,516.59,1731.56,516.59Z" transform="translate(-91.85 -193.7)"/><path class="cls-1" d="M1755.92,520.84a.69.69,0,0,1-.7-.69l.23-17.48-.15-20.95a.69.69,0,0,1,.69-.69h5.49a.69.69,0,0,1,.7.69l-.23,6a15.45,15.45,0,0,1,13.3-7.65c8.19,0,13.29,5.41,13.29,15.77v8l.16,16.32a.69.69,0,0,1-.7.69h-5.72a.69.69,0,0,1-.69-.69l.15-16.32v-7.65c0-7.19-3.48-10.44-8.43-10.44-5.25,0-9.43,4.18-11,12.06v6l.08,16.32a.69.69,0,0,1-.69.69Z" transform="translate(-91.85 -193.7)"/><path class="cls-1" d="M1822.8,520.84a.69.69,0,0,1-.7-.69l.15-5.57a14.06,14.06,0,0,1-12.68,7c-10.74,0-16.46-9-16.46-20.57s6.1-20.8,16.62-20.8a13.9,13.9,0,0,1,12.45,6.65l-.08-19.48a.7.7,0,0,1,.7-.7h5.72a.69.69,0,0,1,.69.7l-.15,23.42.15,29.31a.69.69,0,0,1-.69.69Zm-11.45-4.33c6.81,0,11.06-5.1,11.14-15.23s-4-15.93-11-16c-7.66-.08-11.21,6.26-11.21,15.23C1800.3,510.1,1803.85,516.51,1811.35,516.51Z" transform="translate(-91.85 -193.7)"/><path class="cls-1" d="M1853,521.77c-12.06,0-18.87-8.19-18.87-20.72s6.81-20.95,18.87-20.95,18.86,8.27,18.86,20.8S1865.09,521.77,1853,521.77Zm0-5.18c7.81,0,11.6-5.57,11.6-15.54s-3.87-15.77-11.6-15.77c-7.89.07-11.68,5.8-11.68,15.77S1845.14,516.59,1853,516.59Z" transform="translate(-91.85 -193.7)"/><path class="cls-1" d="M1877.3,520.84a.69.69,0,0,1-.69-.69l.23-17.48-.16-20.95a.69.69,0,0,1,.7-.69h5.49a.69.69,0,0,1,.7.69l-.24,6a15.47,15.47,0,0,1,13.3-7.65c8.2,0,13.3,5.41,13.3,15.77v8l.15,16.32a.69.69,0,0,1-.69.69h-5.72a.69.69,0,0,1-.7-.69l.16-16.32v-7.65c0-7.19-3.48-10.44-8.43-10.44-5.26,0-9.43,4.18-11,12.06v6l.08,16.32a.69.69,0,0,1-.7.69Z" transform="translate(-91.85 -193.7)"/><path class="cls-1" d="M469.55,348.27s-5.28-15.84,0-28.5S491,294.29,491,294.29s13.36,8.59,13.36,35c0,15.43-10.13,29.5-9.76,30.68,1.36,4.31,20.62-8.85,20.11-38.87-.5-29.19-18.55-55.3-18.55-55.3s-39.85,27.48-39.85,53.59C456.33,353.37,469.55,348.27,469.55,348.27Z" transform="translate(-91.85 -193.7)"/><polygon class="cls-1" points="447.44 111.06 470.54 111.06 470.54 127.39 447.44 111.06"/><path class="cls-1" d="M726.17,322.22a92.8,92.8,0,0,0-12.82-1.13c-26.19,0-40.38,12.71-48.43,18.24s-38.83,41-93.79,41c-33.63,0-56.4-14.4-56.4-14.4,8.27-19.49,9.17-57.37,9.17-57.37,45.44,31.13,78.45,28.82,78.45,28.82s22.37.33,43.93-8.12C662,323,678.1,310.59,695.2,310.59S726.17,322.22,726.17,322.22Z" transform="translate(-91.85 -193.7)"/><path class="cls-1" d="M546.47,387.67v15.61a189.81,189.81,0,0,0,37.2,3.86c20,0,40.09,1.34,81.33-27.76s38.74-31.77,73.44-30.81c0,0-14.84-8.89-30.65-8.89S670,347.77,647.27,362.8,613.54,390.56,546.47,387.67Z" transform="translate(-91.85 -193.7)"/><path class="cls-1" d="M484.48,412.34c-3.84,1.51-11.66,14.43-5.9,20.67,5,5.38,13,3.09,16.19.67C498.83,430.61,489.57,410.34,484.48,412.34Z" transform="translate(-91.85 -193.7)"/><path class="cls-1" d="M434.31,367.88a3.45,3.45,0,0,1,4.72-.58c6.34,4.55,28.55,21.1,28.55,29.58v36S466.1,445,486.15,445c16.86,0,17.41,47,17.41,47s0,37.91-4.67,37.91c-5.91,0-10.89-28-24.84-39s-46.15-30.44-46.15-49.3C427.9,424.68,426.71,377.59,434.31,367.88Z" transform="translate(-91.85 -193.7)"/><path class="cls-1" d="M486.49,581.1A24.3,24.3,0,0,1,484.88,571a25.14,25.14,0,0,1,.78-5.33,19.58,19.58,0,0,1,.93-2.56c.2-.42.38-.83.6-1.25s.49-.83.76-1.23a15.71,15.71,0,0,1,3.91-4A28.18,28.18,0,0,1,496.5,554a32.8,32.8,0,0,1,9.86-2.68l.21.61a71.71,71.71,0,0,0-8,5.52,36.84,36.84,0,0,0-6,6.39c-.21.27-.39.56-.58.83s-.38.62-.57.92a8.11,8.11,0,0,0-.57.94c-.19.31-.39.62-.56,1a23.68,23.68,0,0,0-1.9,4.11,23.08,23.08,0,0,0-1.05,4.56,26.58,26.58,0,0,0-.24,4.82Z" transform="translate(-91.85 -193.7)"/><path class="cls-1" d="M498.35,581.34c-3.1-.11-5.65-4.08-5.89-7.41-.49-6.77,10.46-13.43,13.82-11.84,2.65,1.26.48,8-1.28,12.41C504.56,575.59,502.2,581.48,498.35,581.34Z" transform="translate(-91.85 -193.7)"/><path class="cls-1" d="M431.74,518.23a25.94,25.94,0,0,1,14.06,10.46,17.57,17.57,0,0,1,1.86,4.27c.44,1.45.77,2.86,1.14,4.22a71.73,71.73,0,0,0,2.59,8,68.84,68.84,0,0,0,3.56,7.64c1.31,2.48,2.61,5,3.85,7.53s2.42,5.16,3.63,7.77,2.4,5.23,3.47,8l-.41.29a58.22,58.22,0,0,1-11.08-13.64,49.26,49.26,0,0,1-4-7.88c-1.08-2.76-2-5.59-2.84-8.41a75,75,0,0,1-2.05-8.62c-.25-1.44-.45-2.87-.72-4.21a14.69,14.69,0,0,0-1.23-3.78,21.59,21.59,0,0,0-5-6.53,31.12,31.12,0,0,0-7.07-4.68Z" transform="translate(-91.85 -193.7)"/><path class="cls-1" d="M499.07,368.05s18.62,12.54,37,13.13c0,0,2.19,120.68-9,206.16-3.49,8.37-8.31,11.51-31.37,11.51,0,0-50.06-3.16-53.52-14.38C433.73,545.61,392.81,543.8,338.9,541c-.87,0-9.58-.45-12.42,2,0,0-19,18.69-29.09,73.24-11.32,61-13.24,74.71-13.24,74.71s-2.46-56.44,1.5-90.07c3.9-33.15,22.85-66.65,22.85-66.65s7.75-12,15.42-15.74,30.19,5.07,39.54,6.27,51.05,9.11,55.12,12,22.05,7.5,27.56,14.89c4.18,10.24,7.54,32.6,57.42,32.6C515.09,579.28,514,571.6,514,571.6s3.13-77.92.67-102.8,2-46.77-21.11-95.39C492.31,366.63,499.07,368.05,499.07,368.05Z" transform="translate(-91.85 -193.7)"/><path class="cls-1" d="M329.32,409.57c-.17-31.82,14.54-56.33,29.15-71.59,24-25.05,49.19-45.29,55.36-40.7,1.56,1.16,1.27,7.48-20.56,50.44-21.68,42.66-27.12,57.19-27.63,72.93-1,31.54,28.24,61.89,33.09,67.47a160.91,160.91,0,0,1,21.2,29.23c4.7,8.37,9.85,21.66,11.72,26.56-4.93-1.72-7.65-3.21-12.58-4.92-10.33-13.61-49.84-41.48-71.1-70.47C333.68,449,329.49,440.28,329.32,409.57Z" transform="translate(-91.85 -193.7)"/><path class="cls-1" d="M463.58,286.92c-3.88-1.5-7.72-3.06-11.6-4.52s-7.74-2.95-11.61-4.4c-7.75-2.87-15.5-5.65-23.31-8.26-15.59-5.24-31.3-10.05-47.09-14.06q-5.93-1.52-11.9-2.86t-12-2.7c-8.06-1.74-16.2-3.6-24.32-5.6s-16.18-4.28-24.2-6.6c-4-1.18-8-2.42-12-3.69s-8-2.58-11.94-3.9c-7.92-2.74-15.83-5.65-23.65-8.86-3.91-1.61-7.77-3.34-11.55-5S231,213.16,227.6,212a60.37,60.37,0,0,0-10.77-2.67c-1.89-.32-3.83-.52-5.75-.82s-3.86-.39-5.79-.52-3.89-.21-5.84-.23-3.9,0-5.85.07l-5.87.31-5.87.63c-3.9.59-7.83,1.11-11.71,2l-2.93.6c-1,.19-1.93.5-2.9.74l-5.81,1.51c-3.82,1.23-7.7,2.31-11.48,3.76-1.89.7-3.82,1.34-5.7,2.08l-5.63,2.32-2.84,1.15-2.77,1.28-5.58,2.55c-.94.41-1.85.87-2.76,1.34L119,229.45l-5.51,2.76-10.87,5.93c-3.58,2.06-7.13,4.19-10.77,6.23a219.81,219.81,0,0,1,40.33-29.74l5.54-3.08c1.87-1,3.79-1.89,5.69-2.84s3.81-1.88,5.78-2.68l5.89-2.49c2-.76,4-1.48,6-2.2,1-.34,2-.75,3-1l3.09-.93c4.1-1.3,8.32-2.27,12.55-3.18a122.83,122.83,0,0,1,26-2.48c2.19,0,4.39.16,6.59.24l3.28.3c1.1.12,2.19.18,3.29.35a75.92,75.92,0,0,1,13.41,2.8l3.25,1.08,3.11,1.18,3,1.21,2.89,1.21c3.82,1.59,7.55,3.15,11.33,4.61,7.52,3,15.17,5.74,22.89,8.37,3.87,1.32,7.73,2.65,11.63,3.89l5.84,1.89,5.86,1.85c7.81,2.48,15.65,4.8,23.51,7.07s15.8,4.35,23.8,6.58c4,1.12,8,2.21,12,3.42s8,2.46,12,3.78A411.81,411.81,0,0,1,420,262.42c7.53,3.62,14.94,7.44,22.21,11.52S456.65,282.33,463.58,286.92Z" transform="translate(-91.85 -193.7)"/><path class="cls-1" d="M497.08,439.92a112,112,0,0,0-2.17-11.08,33.72,33.72,0,0,0-1.71-5c-.16-.39-.35-.73-.5-1.1s-.38-.67-.54-1a4.28,4.28,0,0,0-.32-.56l-.36-.6-.73-1.21a89.25,89.25,0,0,1-5.41-10.21,32.6,32.6,0,0,1-1.86-5.55,16.86,16.86,0,0,1-.37-5.78,18.08,18.08,0,0,0,1.68,5.34,38.78,38.78,0,0,0,2.75,4.81q1.54,2.31,3.27,4.52c1.14,1.48,2.31,2.95,3.49,4.44l.88,1.13.43.57c.15.19.28.39.44.64s.3.49.44.74a4.78,4.78,0,0,1,.39.74,14.81,14.81,0,0,1,.6,1.51,22.59,22.59,0,0,1,.94,6.05A38.75,38.75,0,0,1,497.08,439.92Z" transform="translate(-91.85 -193.7)"/></svg>