<?xml version="1.0" encoding="utf-8"?>
<!-- Generator: Adobe Illustrator 25.3.1, SVG Export Plug-In . SVG Version: 6.00 Build 0)  -->
<svg version="1.1"
	 id="svg5" xmlns:inkscape="http://www.inkscape.org/namespaces/inkscape" xmlns:sodipodi="http://sodipodi.sourceforge.net/DTD/sodipodi-0.dtd" xmlns:svg="http://www.w3.org/2000/svg"
	 xmlns="http://www.w3.org/2000/svg" xmlns:xlink="http://www.w3.org/1999/xlink" x="0px" y="0px" viewBox="0 0 595.3 841.9"
	 style="enable-background:new 0 0 595.3 841.9;" xml:space="preserve">
<style type="text/css">
	.st0{fill:#FFFFFF;}
</style>
<sodipodi:namedview  bordercolor="#cccccc" borderopacity="1" id="namedview7" inkscape:current-layer="layer1" inkscape:cx="-904.92195" inkscape:cy="203.2898" inkscape:document-units="mm" inkscape:pagecheckerboard="0" inkscape:pageopacity="1" inkscape:pageshadow="0" inkscape:window-height="1346" inkscape:window-maximized="1" inkscape:window-width="2160" inkscape:window-x="-11" inkscape:window-y="-11" inkscape:zoom="0.35417419" pagecolor="#ffffff" showborder="false" showgrid="false">
	</sodipodi:namedview>
<path class="st0" d="M214.8,314.8v11c5.3-0.1,6.5-1.2,6.5,4v11.9h3.3v99.7h1.7v0.1h146.5v-99.8h4.1V327c0.1-0.6,0.4-1,0.8-1.2h4.6
	v-11H214.8z M295.6,428.3c0,2.4-2,4.4-4.5,4.4h-16c-2.5,0-4.5-2-4.5-4.4v-78c0-2.5,2-4.4,4.5-4.4h16c2.5,0,4.5,2,4.5,4.4V428.3z
	 M324.5,428.3c0,2.4-2,4.4-4.5,4.4h-16c-2.5,0-4.5-2-4.5-4.4v-78c0-2.5,2-4.4,4.5-4.4h16c2.5,0,4.5,2,4.5,4.4V428.3z M119.3,729.5
	H476c0.3,0,0.6,0.3,0.6,0.6v89.4c0,0.3-0.3,0.6-0.6,0.6H119.3c-0.3,0-0.6-0.3-0.6-0.6V730C118.8,729.7,119,729.5,119.3,729.5z
	 M108,677.7c-0.3,0-0.6,0.2-0.6,0.6V689c0,0.3,0.2,0.6,0.6,0.6h2.5v9.3c0,0.3,0.2,0.6,0.6,0.6c10.4-0.6,7.7,0.5,7.7,10.3v9.1
	c0,0.3,0.2,0.6,0.6,0.6H476c0.3,0,0.6-0.2,0.6-0.6v-9.1c0.1-10.8-2.6-10.3,7.7-10.3c0.3,0,0.6-0.2,0.6-0.6v-9.3h2.5
	c0.3,0,0.6-0.2,0.6-0.6v-10.7c0-0.3-0.2-0.6-0.6-0.6h-3H111H108z M225.9,476.6C143,525.8,122.8,585.4,118,660.3h136.3h90.5H481
	c-4.8-74.9-25-134.5-107.9-183.7h-28.3h-90.5L225.9,476.6L225.9,476.6z M263.1,220.5c-37.3,23.2-42.6,51.3-44.8,86.6h61.4h40.8h61.4
	c-2.2-35.3-7.5-63.4-44.8-86.6h-16.6h-40.8H263.1z M285,101c-14.4,10.7-16.4,23.6-17.3,39.9h23.6H307h23.6
	c-0.8-16.3-2.9-29.2-17.3-39.9h-6.4h-15.7C291.2,101,285,101,285,101z M226.3,450.1h146.5V472H226.3V450.1z M264.1,146.8
	c-1.7,0-3,1.4-3,3v1.7c0,1.7,1.4,3,3,3h8.1v42.7h-9.4v7.5c0.3,7.3,0.3,5.7-6.6,5.7v2.5h85.2v-2.5c-7.1,0-6.6,1.6-6.6-5.3v-7.9H326
	v-42.7h8.6c1.7,0,3-1.4,3-3v-1.7c0-1.7-1.4-3-3-3H264.1z M312.3,93.6c0-3.2-2.5-6.1-6.5-7.7s-9-1.6-13.1,0c-4,1.6-6.5,4.5-6.5,7.7
	h13.1H312.3z M308.2,89.2c0-2.9-1.7-5.7-4.5-7.1c-2.8-1.5-6.2-1.5-9,0s-4.5,4.2-4.5,7.1h9H308.2z M295.7,79l3.5-57.1l3.5,57.1H295.7
	z M299.2,59.8c3.1,0,5.6,1.9,5.6,4.2c0,2.3-2.5,4.2-5.6,4.2s-5.6-1.9-5.6-4.2C293.6,61.7,296.1,59.8,299.2,59.8z"/>
</svg>
